<?xml version="1.0" encoding="iso-8859-1"?>
<!-- Generator: Adobe Illustrator 19.0.0, SVG Export Plug-In . SVG Version: 6.00 Build 0)  -->
<svg version="1.1" id="Capa_1" xmlns="http://www.w3.org/2000/svg" xmlns:xlink="http://www.w3.org/1999/xlink" x="0px" y="0px"
	 viewBox="0 0 511.999 511.999" style="enable-background:new 0 0 511.999 511.999;" xml:space="preserve">
<g fill="#2986d4">
	<g>
		<g>
			<path d="M138.156,310.676H94.472c-8.83,0-16.015,7.185-16.015,16.015v31.273c0,8.83,7.185,16.014,16.015,16.014h43.685
				c8.83,0,16.015-7.184,16.015-16.014v-31.273C154.171,317.86,146.986,310.676,138.156,310.676z M139.173,357.964L139.173,357.964
				c-0.001,0.56-0.457,1.015-1.017,1.015H94.472c-0.56,0-1.016-0.456-1.016-1.015v-31.273c0-0.56,0.456-1.016,1.016-1.016h43.685
				c0.56,0,1.016,0.456,1.016,1.016V357.964z"/>
			<path d="M215.173,348.126h-35.659c-4.143,0-7.499,3.358-7.499,7.499s3.357,7.499,7.499,7.499h35.659
				c4.143,0,7.499-3.358,7.499-7.499S219.314,348.126,215.173,348.126z"/>
			<path d="M172.013,329.028c0,4.142,3.357,7.499,7.5,7.499h54.06c4.143,0,7.499-3.358,7.499-7.499s-3.357-7.499-7.499-7.499h-54.06
				C175.37,321.528,172.013,324.886,172.013,329.028z"/>
			<path d="M410.171,356.328l-9.12,9.12c-2.929,2.929-2.929,7.677,0,10.605c1.465,1.464,3.385,2.197,5.304,2.197
				c1.919,0,3.839-0.732,5.304-2.197l9.12-9.12c2.929-2.929,2.929-7.677,0-10.605C417.849,353.399,413.101,353.399,410.171,356.328z
				"/>
			<path d="M428.962,313.812c-2.929-2.929-7.677-2.93-10.606,0l-16.369,16.369c-2.93,2.929-2.93,7.676-0.001,10.605
				c1.465,1.465,3.384,2.197,5.304,2.197c1.919,0,3.839-0.732,5.303-2.197l16.37-16.369
				C431.891,321.488,431.891,316.741,428.962,313.812z"/>
			<path d="M463.072,352.643c4.143,0,7.499-3.358,7.499-7.5V181.251l38.705-62.453c3.474-5.606,3.633-12.392,0.425-18.154
				c-3.208-5.762-9.059-9.201-15.654-9.201H373.293c-11.071,0-21.164,5.619-26.997,15.03l-36.197,58.406l-36.197-58.407
				c-5.834-9.411-15.926-15.03-26.997-15.03H64.54c-4.142,0-7.499,3.358-7.499,7.499c0,4.142,3.357,7.499,7.499,7.499h28.268
				l40.392,65.173H53.101l-37.63-60.718c-0.786-1.269-0.381-2.397-0.069-2.957c0.311-0.56,1.058-1.499,2.55-1.499h11.099
				c4.143,0,7.499-3.358,7.499-7.499c0-4.142-3.357-7.499-7.499-7.499H17.952c-6.595,0-12.446,3.44-15.654,9.201
				s-3.049,12.548,0.425,18.155l38.705,62.451v213.177c0,14.408,11.722,26.129,26.129,26.129h242.544c0,0,0,0,0.001,0h134.342
				c14.407,0,26.129-11.721,26.129-26.129v-13.748c0-4.142-3.357-7.499-7.499-7.499s-7.499,3.358-7.499,7.499v13.748
				c0,6.138-4.993,11.13-11.13,11.13H317.598V186.615h137.974v32.283h-60.837c-8.629,0-15.65,7.02-15.65,15.65v24.364
				c0,8.629,7.021,15.65,15.65,15.65h60.837v70.582C455.572,349.285,458.929,352.643,463.072,352.643z M246.905,106.443
				c5.844,0,11.169,2.966,14.248,7.932l35.475,57.241H216.53l-40.392-65.173H246.905z M110.454,106.443h48.038l40.392,65.173
				h-48.038L110.454,106.443z M204.855,186.615v63.457l-4.189-1.938c-3.008-1.39-6.456-1.39-9.468,0.001l-11.685,5.407
				l-11.686-5.408c-3.01-1.392-6.461-1.392-9.47,0.001l-4.186,1.937v-63.457H204.855z M302.599,405.558H67.556
				c-6.138,0-11.13-4.993-11.13-11.13V186.615h82.746v69.282c0,3.867,1.945,7.418,5.203,9.5c3.258,2.083,7.298,2.356,10.809,0.733
				l7.908-3.66l11.684,5.406c1.506,0.697,3.122,1.046,4.738,1.046c1.615,0,3.23-0.349,4.734-1.045l11.685-5.408l7.909,3.66
				c3.509,1.624,7.551,1.35,10.808-0.733c3.259-2.082,5.204-5.635,5.204-9.501v-69.282h82.745V405.558z M323.571,171.616
				l35.475-57.241c3.079-4.967,8.404-7.932,14.248-7.932h120.754c1.492,0,2.238,0.939,2.55,1.499c0.31,0.559,0.716,1.688-0.07,2.956
				l-37.63,60.719H323.571z M394.737,259.563c-0.359,0-0.651-0.292-0.651-0.651v-24.364c0-0.359,0.292-0.651,0.651-0.651h60.837
				v25.666H394.737z"/>
		</g>
	</g>
</g>
<g>
</g>
<g>
</g>
<g>
</g>
<g>
</g>
<g>
</g>
<g>
</g>
<g>
</g>
<g>
</g>
<g>
</g>
<g>
</g>
<g>
</g>
<g>
</g>
<g>
</g>
<g>
</g>
<g>
</g>
</svg>
