<svg id="Capa_1" enable-background="new 0 0 512.002 512.002" height="512" viewBox="0 0 512.002 512.002" width="512" xmlns="http://www.w3.org/2000/svg"> 
    <g fill="#2986d4"><path d="m402.796 309.03h15.871c4.142 0 7.5-3.358 7.5-7.5s-3.358-7.5-7.5-7.5h-15.871c-4.142 0-7.5 3.358-7.5 7.5s3.358 7.5 7.5 7.5zm-319.025 148.719h-15.871c-4.142 0-7.5 3.358-7.5 7.5s3.358 7.5 7.5 7.5h15.871c4.142 0 7.5-3.358 7.5-7.5s-3.358-7.5-7.5-7.5zm-7.536-76.749h44.227c11.819 0 21.434-9.616 21.434-21.435v-24.151c0-11.819-9.616-21.435-21.434-21.435h-44.227c-11.819 0-21.435 9.616-21.435 21.435v24.151c0 11.819 9.616 21.435 21.435 21.435zm-6.435-45.586c0-3.548 2.887-6.435 6.435-6.435h44.227c3.548 0 6.434 2.887 6.434 6.435v24.151c0 3.548-2.887 6.435-6.434 6.435h-44.227c-3.548 0-6.435-2.887-6.435-6.435zm422.47-168.977-64.391-64.391c-2.929-2.929-7.678-2.929-10.606 0-2.929 2.929-2.929 7.678 0 10.606l64.391 64.391c9.891 9.891 15.337 23.041 15.337 37.028v20.925h-139.81v-143.309c0-7.982 5.167-12.966 10.002-14.969 4.835-2.002 12.013-2.132 17.657 3.512l7.043 7.044c2.929 2.929 7.678 2.929 10.606 0 2.929-2.929 2.929-7.678 0-10.606l-7.043-7.043c-9.093-9.093-22.124-11.686-34.004-6.764-11.881 4.921-19.262 15.967-19.262 28.827v80.007c-1.478-1.819-3.051-3.576-4.731-5.256l-96.813-96.813c-9.094-9.093-22.123-11.686-34.004-6.764-11.881 4.921-19.262 15.967-19.262 28.827v53.642c-4.178-3.669-9.051-6.56-14.398-8.446.13-1.719.209-3.435.209-5.136 0-15.794-5.463-31.241-15.384-43.495-9.772-12.07-23.455-20.588-38.526-23.984-1.777-.4-3.064-2.007-2.993-3.736.032-.784.048-1.571.048-2.363 0-16.064-6.738-31.567-18.488-42.532-11.913-11.12-27.471-16.624-43.797-15.494-28.487 1.968-51.646 24.913-53.868 53.371-1.912 24.479 11.814 47.673 34.155 57.716 1.829.822 2.801 2.683 2.364 4.525-1.512 6.384-2.094 12.951-1.759 19.569-19.93 4.182-34.942 21.892-34.942 43.046v288.299c0 24.996 20.335 45.332 45.331 45.332h34.766c4.142 0 7.5-3.358 7.5-7.5s-3.358-7.5-7.5-7.5h-34.765c-16.725 0-30.331-13.607-30.331-30.332v-33.175h282.57v63.506h-181.434c-4.142 0-7.5 3.358-7.5 7.5s3.358 7.5 7.5 7.5h350.532c24.996 0 45.331-20.335 45.331-45.332v-252.598c0-17.994-7.007-34.911-19.731-47.635zm-289.888-74.75c0-7.982 5.167-12.966 10.002-14.969 4.834-2.002 12.013-2.132 17.657 3.512l96.813 96.813c9.891 9.891 15.337 23.041 15.337 37.028v20.925h-139.81v-143.309zm-187.245-37.003c1.648-21.101 18.822-38.115 39.948-39.575 12.135-.837 23.688 3.244 32.53 11.496 8.849 8.258 13.722 19.469 13.722 31.566 0 .587-.012 1.171-.036 1.752-.367 8.998 5.809 16.98 14.683 18.98 24.457 5.511 42.208 27.736 42.208 52.846 0 .874-.028 1.756-.073 2.639h-108.204c-.243-5.14.213-10.231 1.383-15.172 2.085-8.799-2.461-17.91-10.81-21.663-16.583-7.456-26.771-24.683-25.351-42.869zm-.136 123.688c0-15.982 13.002-28.985 28.985-28.985h114.411c15.982 0 28.984 13.002 28.984 28.985v5.83h-172.38zm0 20.83h172.38v35.795h-172.38zm354.886 297.8h-57.315v-127.399c0-8.058 6.556-14.613 14.613-14.613h42.702zm72.315 0h-57.315v-142.012h42.702c8.058 0 14.613 6.556 14.613 14.613zm54.799-30.331c0 16.725-13.606 30.332-30.332 30.332h-9.467v-63.506h39.799zm0-48.175h-39.799v-48.893c0-16.329-13.285-29.613-29.613-29.613h-100.404c-16.329 0-29.613 13.285-29.613 29.613v48.893h-282.571v-168.499h482zm-157.196 15h8.474c4.142 0 7.5-3.358 7.5-7.5s-3.358-7.5-7.5-7.5h-8.474c-4.142 0-7.5 3.358-7.5 7.5s3.358 7.5 7.5 7.5zm-164.055-150.059h15.871c4.142 0 7.5-3.358 7.5-7.5s-3.358-7.5-7.5-7.5h-15.871c-4.142 0-7.5 3.358-7.5 7.5s3.358 7.5 7.5 7.5zm.436 51.977v24.151c0 11.819 9.616 21.435 21.434 21.435h44.227c11.819 0 21.435-9.616 21.435-21.435v-24.151c0-11.819-9.616-21.435-21.435-21.435h-44.227c-11.819 0-21.434 9.616-21.434 21.435zm72.095 0v24.151c0 3.548-2.887 6.435-6.435 6.435h-44.226c-3.548 0-6.434-2.887-6.434-6.435v-24.151c0-3.548 2.887-6.435 6.434-6.435h44.227c3.548 0 6.434 2.887 6.434 6.435zm166.687 83.082h-8.473c-4.142 0-7.5 3.358-7.5 7.5s3.358 7.5 7.5 7.5h8.473c4.142 0 7.5-3.358 7.5-7.5s-3.357-7.5-7.5-7.5z"/></g></svg>
