<svg xmlns="http://www.w3.org/2000/svg" viewBox="0 0 128 128"><defs><style>.cls-1{fill:#e7f0fd;}.cls-2{fill:#5195f5;}.cls-3{fill:none;}.cls-4{fill:#0a304e;}</style></defs><g id="Fills"><path class="cls-1" d="M77.93,91.8c0,1.35-.77,2.45-1.74,2.45H43.26v6.2H34.94V88.89c0-2,1.14-3.58,2.54-3.58H61.67c.95,0,1.73-1.1,1.73-2.45V79.93l-3.61-4.81v-4l3.61-4.81V61.66l-3.61-4.81v-4l3.61-4.81V45.15c0-1.35-.79-2.46-1.74-2.46H37.48c-1.4,0-2.54-1.6-2.54-3.58V27.55h8.32v6.2H76.19c1,0,1.74,1.1,1.74,2.46V56.43l6.46,3.73,18.38.06V5.67H86.38v13.1H30.44V5.67H14.05V122.33H30.44v-13.1H86.38v13.1h16.39V67.79l-18.38.07-6.46,3.72Z"/><path class="cls-2" d="M84.39,60.16l-6.46-3.73V36.21c0-1.36-.78-2.46-1.74-2.46H43.26v-6.2H34.94V39.11c0,2,1.14,3.58,2.54,3.58H61.66c1,0,1.74,1.11,1.74,2.46v2.92l-3.61,4.81v4l3.61,4.81v4.68l-3.61,4.81v4l3.61,4.81v2.93c0,1.35-.78,2.45-1.73,2.45H37.48c-1.4,0-2.54,1.6-2.54,3.58v11.56h8.32v-6.2H76.19c1,0,1.74-1.1,1.74-2.45V71.58l6.46-3.72,28.52-.11L128,84.24V43.76L112.91,60.25Z"/></g><g id="Linework"><path class="cls-3" d="M101.77,59.21V6.67H87.38v13.1H62.69v13H76.2c1.53,0,2.73,1.52,2.73,3.46V55.85l5.73,3.31Z"/><path class="cls-3" d="M29.44,19.77V6.67H15.05V121.33H29.44v-13.1H60.69v-13H44.26v6.2H33.94V88.89c0-2.57,1.56-4.58,3.54-4.58H61.67c.29,0,.73-.58.73-1.45V80.27l-3.61-4.81V70.81L62.4,66V62l-3.61-4.81V52.54l3.61-4.81V45.15c0-.85-.45-1.46-.74-1.46H37.48c-2,0-3.54-2-3.54-4.58V26.55H44.26v6.2H60.69v-13Z"/><polygon class="cls-3" points="60.69 17.77 62.69 17.77 85.38 17.77 85.38 10.63 31.44 10.63 31.44 17.77 60.69 17.77"/><polygon class="cls-3" points="62.69 110.23 60.69 110.23 31.44 110.23 31.44 117.37 85.38 117.37 85.38 110.23 62.69 110.23"/><path class="cls-3" d="M87.38,108.23v13.1h14.39V68.79l-17.11.07-5.73,3.3V91.8c0,1.93-1.2,3.45-2.73,3.45H62.69v13Z"/><path class="cls-4" d="M103.77,59.22V10.63H110v-2h-6.23v-4H85.38v4H31.44v-4H13.05v4H6.72v2h6.33V117.37H6.72v2h6.33v4H31.44v-4H85.38v4h18.39v-4H110v-2h-6.23V68.79l8.7,0,15.53,17v-3l-14.65-16-9.58,0h0l-19.65.07L76.93,71V91.8c0,.87-.44,1.45-.73,1.45H42.26v6.2H35.94V88.89c0-1.52.81-2.58,1.54-2.58H61.67c1.53,0,2.73-1.51,2.73-3.45V79.6l-3.61-4.81V71.48l3.61-4.81V61.33l-3.61-4.81V53.21L64.4,48.4V45.15c0-1.94-1.21-3.46-2.74-3.46H37.48c-.73,0-1.54-1.06-1.54-2.58V28.55h6.32v6.2H76.2c.29,0,.73.58.73,1.46V57l7.19,4.14,19.65.07h0l9.58,0,14.65-16v-3l-15.53,17ZM85.38,10.63v7.14H31.44V10.63ZM31.44,117.37v-7.14H85.38v7.14ZM76.2,95.25c1.53,0,2.73-1.52,2.73-3.45V72.16l5.73-3.3,17.11-.07v52.54H87.38v-13.1H62.69v-13ZM44.26,32.75v-6.2H33.94V39.11c0,2.57,1.56,4.58,3.54,4.58H61.66c.29,0,.74.61.74,1.46v2.58l-3.61,4.81v4.65L62.4,62v4l-3.61,4.81v4.65l3.61,4.81v2.59c0,.87-.44,1.45-.73,1.45H37.48c-2,0-3.54,2-3.54,4.58v12.56H44.26v-6.2H60.69v13H29.44v13.1H15.05V6.67H29.44v13.1H60.69v13Zm34.67,23.1V36.21c0-1.94-1.2-3.46-2.73-3.46H62.69v-13H87.38V6.67h14.39V59.21l-17.11-.05Z"/></g></svg>