<svg width="40" height="40" viewBox="0 0 40 40" fill="none" xmlns="http://www.w3.org/2000/svg">
<path d="M4.12879 28.4852C3.57616 29.4611 3.42265 30.5919 3.71432 31.6762C4.00598 32.7605 4.69677 33.6744 5.66387 34.2321C6.32395 34.6194 7.03009 34.7897 7.73623 34.7897C9.17921 34.7897 10.5915 34.0307 11.359 32.6831L12.188 31.227H32.1901C32.5431 31.227 32.8348 30.9326 32.8348 30.5764C32.8348 30.2201 32.5431 29.9258 32.1901 29.9258H11.8195C11.5893 29.9258 11.3744 30.0497 11.2669 30.2511L10.2538 32.0325C9.45552 33.4266 7.69018 33.9068 6.3086 33.1013C4.92703 32.2958 4.45115 30.5144 5.2494 29.1203L14.4138 13.1032C14.5213 12.9019 14.5213 12.654 14.4138 12.4526C12.6485 9.37005 13.7077 5.40452 16.7625 3.62313C19.8173 1.84173 23.7471 2.89508 25.5125 5.99315L33.6638 20.2288C33.7559 20.3837 33.894 20.4921 34.0629 20.5386C34.2317 20.5851 34.4006 20.5541 34.5541 20.4766C34.8611 20.2908 34.9686 19.9035 34.7844 19.5937L26.6331 5.35805C25.6199 3.59215 23.9927 2.30644 22.0432 1.76428C20.0936 1.20663 18.0366 1.45447 16.2713 2.43037C14.4906 3.40626 13.1858 5.03275 12.6024 6.98454C12.0191 8.93632 12.2033 10.9965 13.1244 12.7934L4.12879 28.4852Z" fill="#111111"/>
<path d="M32.5595 22.8311L23.5793 7.12383C23.0267 6.14794 22.121 5.45087 21.0464 5.15655C19.9719 4.86223 18.8513 5.01714 17.8842 5.57479C15.8885 6.73657 15.2131 9.32346 16.3491 11.3217L17.178 12.7778L7.18464 30.2664C7.00043 30.5762 7.10788 30.979 7.4149 31.1494C7.72192 31.3353 8.12104 31.2268 8.2899 30.917L18.4675 13.1186C18.5749 12.9172 18.5749 12.6694 18.4675 12.468L17.4543 10.6866C17.0706 10.0205 16.9631 9.23052 17.1627 8.47149C17.3622 7.72795 17.8381 7.09285 18.5135 6.70559C19.1736 6.31833 19.9565 6.2099 20.7087 6.41127C21.4455 6.61265 22.0749 7.09285 22.4587 7.77442L31.6231 23.807C31.7306 24.0083 31.9455 24.1322 32.1758 24.1322C35.7065 24.1322 38.5924 27.0289 38.5924 30.6072C38.5924 34.1855 35.7218 37.0822 32.1758 37.0822H15.8885C15.5355 37.0822 15.2438 37.3765 15.2438 37.7328C15.2438 38.0891 15.5355 38.3834 15.8885 38.3834H32.1911C34.2174 38.3834 36.1209 37.5934 37.5793 36.1683C39.0222 34.7432 39.8512 32.8223 39.8972 30.7931C39.9433 28.7639 39.2064 26.7966 37.8249 25.3095C36.4433 23.807 34.5705 22.924 32.5595 22.8311Z" fill="#111111"/>
<path d="M32.1902 34.8053C33.3108 34.8053 34.3547 34.3715 35.1376 33.566C35.9205 32.776 36.3656 31.7072 36.3656 30.5919C36.3656 29.4766 35.9358 28.4077 35.1376 27.6177C34.3547 26.8277 33.2955 26.3785 32.1902 26.3785H30.5323L20.5389 8.90536C20.3547 8.59556 19.971 8.48712 19.6639 8.67301C19.5104 8.76595 19.403 8.90536 19.3569 9.07576C19.3109 9.24615 19.3416 9.41655 19.4183 9.57145L29.5959 27.3699C29.7034 27.5713 29.9183 27.6952 30.1486 27.6952H32.1902C32.9578 27.6952 33.6792 28.005 34.2319 28.5471C34.7691 29.0893 35.0762 29.8328 35.0762 30.6074C35.0762 31.3819 34.7691 32.1099 34.2319 32.6676C33.6946 33.2097 32.9578 33.5196 32.1902 33.5196H13.846C13.6157 33.5196 13.4008 33.6435 13.2934 33.8449C11.528 36.9274 7.59821 37.9963 4.54339 36.2149C3.05436 35.3474 1.99516 33.9533 1.54998 32.2803C1.10481 30.6074 1.33507 28.8724 2.19472 27.3699L10.346 13.1342C10.4381 12.9793 10.4535 12.8089 10.4074 12.6385C10.3614 12.4681 10.2539 12.3287 10.1004 12.2358C9.94688 12.1429 9.77802 12.1274 9.60916 12.1738C9.4403 12.2203 9.30215 12.3287 9.21004 12.4836L1.07411 26.7038C0.0609552 28.4697 -0.215359 30.5299 0.275867 32.5127C0.782444 34.4954 2.01051 36.1684 3.7298 37.2218C4.94251 37.9653 6.32409 38.3525 7.72101 38.3525C8.30434 38.3525 8.88767 38.2906 9.47101 38.1512C11.4359 37.6865 13.1091 36.4937 14.1991 34.7898H32.1902C32.1902 34.8053 32.1902 34.8053 32.1902 34.8053Z" fill="#111111"/>
</svg>
