<svg xmlns="http://www.w3.org/2000/svg" xmlns:xlink="http://www.w3.org/1999/xlink" viewBox="0 0 128 128"><defs><style>.cls-1,.cls-6{fill:none;}.cls-2{clip-path:url(#clip-path);}.cls-3{fill:#fff;}.cls-4{fill:#e7f0fd;}.cls-5{fill:#5195f5;}.cls-6{stroke:#0a304e;stroke-miterlimit:10;stroke-width:1.97px;}</style><clipPath id="clip-path"><rect class="cls-1" width="128" height="128"/></clipPath></defs><g id="Fills"><rect class="cls-1" width="128" height="128"/><g class="cls-2"><polyline class="cls-3" points="135.91 59.49 129.71 66.48 97 84.82 17.26 84.82 130.7 19.68"/><polygon class="cls-4" points="151.12 33.79 67.75 81.53 67.75 41.35 160.13 -9.82 151.12 33.79"/><polygon class="cls-4" points="164.14 7.88 81.25 54.24 93.42 79.67 178.17 32.35 164.14 7.88"/><rect class="cls-5" x="27.57" y="41.35" width="40.18" height="40.18"/><rect class="cls-5" x="71.39" y="54.58" width="26.96" height="26.96" rx="13.48"/><rect class="cls-5" x="17.26" y="84.82" width="79.73" height="18.12"/><polyline class="cls-4" points="133.2 64.52 97 84.82 97 102.94 142.71 77.77"/><polyline class="cls-3" points="107.63 -5.06 27.57 40.48 67.75 41.35 158.05 -9.82"/></g></g><g id="Linework"><g class="cls-2"><rect class="cls-6" x="27.57" y="41.24" width="40.18" height="40.18"/><rect class="cls-6" x="71.39" y="54.47" width="26.96" height="26.96" rx="13.48"/><rect class="cls-6" x="17.26" y="84.71" width="79.73" height="18.12"/><polyline class="cls-6" points="112.41 -6.82 27.57 40.48 27.57 43.42"/><line class="cls-6" x1="152.6" y1="-6.06" x2="67.75" y2="41.24"/><polyline class="cls-6" points="75.61 77.4 68.4 81.42 65.34 81.42"/><polyline class="cls-6" points="27.57 78.43 17.26 84.17 17.26 86.02"/><line class="cls-6" x1="78.08" y1="56.34" x2="162.93" y2="9.04"/><path class="cls-6" d="M178.32,31.37,92,79.51a15,15,0,0,1-7.1,1.91"/><line class="cls-6" x1="97" y1="84.71" x2="181.84" y2="37.4"/><polyline class="cls-6" points="182.61 55.52 97.76 102.83 94.07 102.83"/></g></g></svg>