<svg xmlns="http://www.w3.org/2000/svg" viewBox="0 0 128 128"><defs><style>.cls-1{fill:#e7f0fd;}.cls-2{fill:#5195f5;}.cls-3{fill:#fff;}.cls-4{fill:none;}.cls-5{fill:#0a304e;}</style></defs><g id="Fills"><path class="cls-1" d="M64.7,102.47,83.23,83.94V0H58.5V34.4a40.91,40.91,0,0,1,0,62.74l-.31.1,5.23,5.23A.89.89,0,0,0,64.7,102.47Z"/><path class="cls-2" d="M101.42,65.75,64.7,102.47a.89.89,0,0,1-1.28,0l-5.23-5.23L42.43,81.48a.9.9,0,0,1,0-1.27L59,63.62,51.4,56,30.28,77.13a5.24,5.24,0,0,0,0,7.43L45.06,99.35l15.28,15.28a5.27,5.27,0,0,0,7.44,0L83.06,99.35h0l26-26Z"/><path class="cls-3" d="M67.78,114.63a5.27,5.27,0,0,1-7.44,0L45.06,99.35h-25V128H108V99.35h-25Z"/></g><g id="Linework"><path class="cls-4" d="M64.06,115.17a4.25,4.25,0,0,0,3-1.25l40.55-40.55-6.2-6.2L84.23,84.35h0L65.4,103.18a2.08,2.08,0,0,1-1.34.56,1.9,1.9,0,0,1-1.05-.32,2.1,2.1,0,0,1-.3-.24l-6.36-6.36h0L41.72,82.19a1.91,1.91,0,0,1,0-2.69L57.6,63.62l-6.2-6.2L31,77.83a4.26,4.26,0,0,0,0,6L45.47,98.35l15.58,15.57A4.25,4.25,0,0,0,64.06,115.17Z"/><path class="cls-5" d="M19.09,128h2V100.35H44.64l15,15a6,6,0,0,0,1.49,1.1,6.26,6.26,0,0,0,7.36-1.1l15-15H107V128h2V98.35H85.47l25-25-9-9L84.23,81.52V0h-2V83.52L64.06,101.7l-4.31-4.31a41.91,41.91,0,0,0-.25-63.45V0h-2V34.87l.36.3A39.89,39.89,0,0,1,58.32,96L43.21,80.85,60.43,63.62l-9-9L29.57,76.42a6.24,6.24,0,0,0,0,8.85L42.64,98.35H19.09ZM31,83.86a4.26,4.26,0,0,1,0-6L51.4,57.42l6.2,6.2L41.72,79.5a1.91,1.91,0,0,0,0,2.69L56.35,96.82h0l6.36,6.36a2.1,2.1,0,0,0,.3.24,1.9,1.9,0,0,0,1.05.32,2.08,2.08,0,0,0,1.34-.56L84.23,84.35h0l17.19-17.18,6.2,6.2L67.07,113.92a4.25,4.25,0,0,1-6,0L45.47,98.35Z"/></g></svg>