<svg xmlns="http://www.w3.org/2000/svg" viewBox="0 0 128 128"><defs><style>.cls-1{fill:#e7f0fd;}.cls-2{fill:#5195f5;}.cls-3{fill:#fff;}.cls-4{fill:none;}.cls-5{fill:#0a304e;}</style></defs><g id="Fills"><path class="cls-1" d="M61.05,73.48a7.06,7.06,0,0,1,13.82,0h29.77a41.73,41.73,0,1,0-81.28,0Z"/><path class="cls-2" d="M75,74.93a7.06,7.06,0,1,1-14.12,0,6.93,6.93,0,0,1,.15-1.45H23.36a41.73,41.73,0,0,0,80.78,1.93,10.58,10.58,0,0,0,.5-1.93H74.87A6.93,6.93,0,0,1,75,74.93Z"/><path class="cls-3" d="M68,82A7.06,7.06,0,0,0,75,74.93a6.93,6.93,0,0,0-.15-1.45,7.06,7.06,0,0,0-13.82,0,6.93,6.93,0,0,0-.15,1.45A7.06,7.06,0,0,0,68,82Z"/></g><g id="Linework"><circle class="cls-4" cx="67.96" cy="74.93" r="6.06"/><rect class="cls-5" x="11.04" y="110.39" width="2" height="2"/><rect class="cls-5" x="17.15" y="110.39" width="2" height="2"/><rect class="cls-5" x="23.26" y="110.39" width="2" height="2"/><rect class="cls-5" x="29.38" y="110.39" width="2" height="2"/><rect class="cls-5" x="35.49" y="110.39" width="2" height="2"/><rect class="cls-5" x="41.6" y="110.39" width="2" height="2"/><rect class="cls-5" x="47.72" y="110.39" width="2" height="2"/><rect class="cls-5" x="53.83" y="110.39" width="2" height="2"/><rect class="cls-5" x="59.94" y="110.39" width="2" height="2"/><rect class="cls-5" x="66.06" y="110.39" width="2" height="2"/><rect class="cls-5" x="72.17" y="110.39" width="2" height="2"/><rect class="cls-5" x="78.28" y="110.39" width="2" height="2"/><rect class="cls-5" x="84.4" y="110.39" width="2" height="2"/><rect class="cls-5" x="90.51" y="110.39" width="2" height="2"/><rect class="cls-5" x="96.62" y="110.39" width="2" height="2"/><rect class="cls-5" x="102.74" y="110.39" width="2" height="2"/><rect class="cls-5" x="108.85" y="110.39" width="2" height="2"/><rect class="cls-5" x="114.96" y="110.39" width="2" height="2"/><rect class="cls-5" x="11.04" y="100.91" width="2" height="2"/><rect class="cls-5" x="17.15" y="100.91" width="2" height="2"/><rect class="cls-5" x="23.26" y="100.91" width="2" height="2"/><rect class="cls-5" x="29.38" y="100.91" width="2" height="2"/><rect class="cls-5" x="35.49" y="100.91" width="2" height="2"/><rect class="cls-5" x="90.51" y="100.91" width="2" height="2"/><rect class="cls-5" x="96.62" y="100.91" width="2" height="2"/><rect class="cls-5" x="102.74" y="100.91" width="2" height="2"/><rect class="cls-5" x="108.85" y="100.91" width="2" height="2"/><rect class="cls-5" x="114.96" y="100.91" width="2" height="2"/><rect class="cls-5" x="11.04" y="91.43" width="2" height="2"/><rect class="cls-5" x="17.15" y="91.43" width="2" height="2"/><rect class="cls-5" x="23.26" y="91.43" width="2" height="2"/><rect class="cls-5" x="102.74" y="91.43" width="2" height="2"/><rect class="cls-5" x="108.85" y="91.43" width="2" height="2"/><rect class="cls-5" x="114.96" y="91.43" width="2" height="2"/><rect class="cls-5" x="11.04" y="81.96" width="2" height="2"/><rect class="cls-5" x="17.15" y="81.96" width="2" height="2"/><rect class="cls-5" x="108.85" y="81.96" width="2" height="2"/><rect class="cls-5" x="114.96" y="81.96" width="2" height="2"/><rect class="cls-5" x="11.04" y="72.48" width="2" height="2"/><rect class="cls-5" x="114.96" y="72.48" width="2" height="2"/><path class="cls-5" d="M103.52,54.09l1.94-.49c-.33-1.32-.73-2.64-1.19-3.92l-1.88.67C102.82,51.57,103.2,52.83,103.52,54.09Z"/><path class="cls-5" d="M102.72,45.89c-.58-1.23-1.22-2.45-1.92-3.62l-1.72,1c.66,1.12,1.28,2.28,1.83,3.45Z"/><path class="cls-5" d="M104.34,69.59l2,.27c.18-1.35.31-2.72.36-4.08l-2-.08C104.64,67,104.52,68.3,104.34,69.59Z"/><path class="cls-5" d="M98.55,38.85c-.79-1.09-1.66-2.16-2.56-3.19L94.49,37c.86,1,1.69,2,2.45,3Z"/><path class="cls-5" d="M93.13,32.73c-1-.92-2-1.81-3.12-2.64l-1.22,1.59c1,.79,2,1.64,3,2.52Z"/><path class="cls-5" d="M79.33,24.1c-1-.39-2.06-.75-3.1-1.06L75.66,25c1,.29,2,.63,3,1Z"/><path class="cls-5" d="M86.64,27.75c-1.15-.72-2.35-1.39-3.56-2l-.9,1.79c1.16.58,2.3,1.22,3.4,1.91Z"/><path class="cls-5" d="M104.67,61.8l2-.11c-.07-1.36-.21-2.73-.41-4.07l-2,.3A38.32,38.32,0,0,1,104.67,61.8Z"/><path class="cls-5" d="M29,43.12l-1.72-1c-.69,1.17-1.34,2.38-1.93,3.61l1.81.86C27.74,45.39,28.35,44.23,29,43.12Z"/><path class="cls-5" d="M61,23.38l-.15-2c-1.35.1-2.72.27-4.06.5l.34,2A38.56,38.56,0,0,1,61,23.38Z"/><path class="cls-5" d="M39.37,31.55,38.16,30c-1.08.82-2.14,1.71-3.14,2.63l1.36,1.47C37.33,33.18,38.34,32.34,39.37,31.55Z"/><path class="cls-5" d="M53.29,24.69l-.53-1.93c-1.31.36-2.62.78-3.89,1.26l.71,1.87C50.79,25.44,52,25,53.29,24.69Z"/><path class="cls-5" d="M25.68,50.16l-1.88-.68c-.46,1.28-.87,2.59-1.21,3.91l1.94.5C24.85,52.63,25.24,51.38,25.68,50.16Z"/><path class="cls-5" d="M33.64,36.84l-1.49-1.33a39.36,39.36,0,0,0-2.58,3.18l1.61,1.18C32,38.83,32.78,37.81,33.64,36.84Z"/><path class="cls-5" d="M23.75,57.71l-2-.31c-.2,1.34-.35,2.71-.43,4.07l2,.12A38.65,38.65,0,0,1,23.75,57.71Z"/><path class="cls-5" d="M23.63,69.38a36.44,36.44,0,0,1-.33-3.89l-2,.08a40.34,40.34,0,0,0,.35,4.08Z"/><path class="cls-5" d="M46,27.45l-.89-1.79c-1.21.6-2.42,1.27-3.58,2l1.06,1.7C43.69,28.66,44.84,28,46,27.45Z"/><path class="cls-5" d="M60.28,72.48H22.1l.29,1.22a42.73,42.73,0,0,0,82.71,2l.08-.24a7.46,7.46,0,0,0,.46-2h-2a8,8,0,0,1-.37,1.36l-.09.3a40.73,40.73,0,0,1-78.54-.65H59.92c0,.15,0,.3,0,.45a8.06,8.06,0,1,0,9.06-8V.09H67V66.94A8.07,8.07,0,0,0,60.28,72.48ZM68,68.87a6.06,6.06,0,1,1-6.06,6.06A6.07,6.07,0,0,1,68,68.87Z"/><rect class="cls-5" x="52.93" y="90.76" width="10.63" height="2" transform="translate(-50.35 96.33) rotate(-60.01)"/><rect class="cls-5" x="57.24" y="52.78" width="2" height="10.63" transform="translate(-21.24 36.9) rotate(-30)"/><rect class="cls-5" x="72.37" y="57.09" width="10.63" height="2" transform="translate(-11.47 96.33) rotate(-60.01)"/><rect class="cls-5" x="50.56" y="82.38" width="5.54" height="2" transform="translate(-34.54 37.83) rotate(-29.99)"/><rect class="cls-5" x="52.33" y="63.71" width="2" height="5.54" transform="translate(-30.91 79.43) rotate(-60.01)"/><rect class="cls-5" x="66.96" y="89.05" width="2" height="5.54"/><rect class="cls-5" x="79.82" y="65.48" width="5.54" height="2" transform="translate(-22.18 50.2) rotate(-30)"/><rect class="cls-5" x="76.68" y="86.45" width="2" height="10.63" transform="translate(-35.48 51.14) rotate(-30)"/><rect class="cls-5" x="81.59" y="80.61" width="2" height="5.54" transform="translate(-30.91 113.22) rotate(-60)"/></g></svg>