<svg xmlns="http://www.w3.org/2000/svg" viewBox="0 0 128 128"><defs><style>.cls-1{fill:none;}.cls-2{fill:#5195f5;}.cls-3{fill:#e7f0fd;}.cls-4{fill:#fff;}.cls-5{fill:#0a304e;}</style></defs><g id="Fills"><path class="cls-1" d="M73.81,69.76c0-.35,0-.69,0-1C73.8,69.07,73.81,69.41,73.81,69.76Z"/><path class="cls-1" d="M73.58,66.94c0-.08,0-.15,0-.22S73.56,66.86,73.58,66.94Z"/><path class="cls-1" d="M73.73,68.15c0-.15,0-.29,0-.44C73.71,67.86,73.72,68,73.73,68.15Z"/><path class="cls-1" d="M71.92,62.05a.83.83,0,0,1,.07.13h0Z"/><path class="cls-1" d="M73.35,65.81a.13.13,0,0,0,0-.06A.13.13,0,0,1,73.35,65.81Z"/><polygon class="cls-2" points="114.24 99.64 73.79 99.64 65.89 99.64 65.88 99.64 55.01 99.64 54.18 99.64 54.18 62.18 13.76 62.18 13.76 120.11 114.24 120.11 114.24 99.64"/><path class="cls-3" d="M72,62.18a14.81,14.81,0,0,1,1.35,3.57.13.13,0,0,1,0,.06c.07.3.14.6.19.91,0,.07,0,.14,0,.22,0,.25.08.51.11.77s0,.29,0,.44,0,.38,0,.58,0,.68,0,1a13.2,13.2,0,0,1-3.53,9.43l.81,1.46a22.86,22.86,0,0,1,2.7,11v8h40.45V62.18H73.79V65.4L72,62.18Z"/><path class="cls-4" d="M65.89,99.64h7.9v-8a22.86,22.86,0,0,0-2.7-11l-.81-1.46a13.2,13.2,0,0,0,3.53-9.43c0-.35,0-.69,0-1s0-.39,0-.58,0-.29,0-.44-.07-.52-.11-.77c0-.08,0-.15,0-.22-.05-.31-.12-.61-.19-.91a.13.13,0,0,0,0-.06A14.81,14.81,0,0,0,72,62.18a.83.83,0,0,0-.07-.13l.07.13,1.8,3.22V43.23a22.8,22.8,0,0,0-2.7-11l-.81-1.46a13.22,13.22,0,0,0,3.53-9.43,15.94,15.94,0,0,0-1.89-7.71L73.79,17V0H54.37a15.22,15.22,0,0,0,1.7,5.25L54.19,1.87V24a22.8,22.8,0,0,0,2.7,11l.83,1.51A13.2,13.2,0,0,0,54.19,46a16,16,0,0,0,1.88,7.69L54.19,50.3V72.48a22.86,22.86,0,0,0,2.7,11l.83,1.5a13.2,13.2,0,0,0-3.53,9.43A16.68,16.68,0,0,0,55,99.64H65.89Z"/></g><g id="Linework"><path class="cls-1" d="M70,80.81h0L55.2,54.18h0v18.3A21.93,21.93,0,0,0,57.76,83l.21.37h0l8.5,15.27h6.32v-7a22,22,0,0,0-2.57-10.52Z"/><path class="cls-1" d="M72.79,61.55V57.07c-.78.1-1.56.18-2.36.25Z"/><path class="cls-1" d="M68.24,57.49c-1.39.08-2.81.14-4.24.14v-2c1.07,0,2.11,0,3.16-.08L57.54,38.27A12.92,12.92,0,0,0,55.19,46,15,15,0,0,0,57,53.2L70.46,77.47a12.89,12.89,0,0,0,2.35-7.71,15.11,15.11,0,0,0-1.75-7.21Z"/><path class="cls-1" d="M55.18,82.27v4.4a10.74,10.74,0,0,1,1.32-1.82L56,84C55.71,83.43,55.44,82.86,55.18,82.27Z"/><path class="cls-1" d="M57.53,86.7a13,13,0,0,0-2.34,7.72,16.08,16.08,0,0,0,.56,4.22h8.43Z"/><polygon class="cls-1" points="65.29 100.64 54.28 100.64 53.18 100.64 53.18 63.18 14.76 63.18 14.76 119.11 113.24 119.11 113.24 100.64 74.79 100.64 67.59 100.64 65.29 100.64"/><path class="cls-1" d="M70,32.37h0L55.2,5.75h0V24a22,22,0,0,0,2.57,10.53l.21.37h0l11.4,20.48c1.17-.09,2.3-.22,3.42-.37V43.23A22.08,22.08,0,0,0,70.22,32.7Z"/><rect class="cls-5" x="78.47" y="61.18" width="2" height="2"/><rect class="cls-5" x="98.12" y="61.18" width="3.53" height="2"/><rect class="cls-5" x="91.06" y="61.18" width="3.53" height="2"/><rect class="cls-5" x="105.18" y="61.18" width="3.53" height="2"/><rect class="cls-5" x="84" y="61.18" width="3.53" height="2"/><polygon class="cls-5" points="112.24 63.18 113.24 63.18 113.24 64.18 115.24 64.18 115.24 61.18 112.24 61.18 112.24 63.18"/><rect class="cls-5" x="113.24" y="75.67" width="2" height="3.83"/><rect class="cls-5" x="113.24" y="68.01" width="2" height="3.83"/><rect class="cls-5" x="113.24" y="90.98" width="2" height="3.83"/><rect class="cls-5" x="113.24" y="83.32" width="2" height="3.83"/><path class="cls-5" d="M72.79,0V13.12L65.48,0H63.19l7.87,14.12a15.11,15.11,0,0,1,1.75,7.21A12.89,12.89,0,0,1,70.46,29L57,4.77A14.18,14.18,0,0,1,55.38,0H53.19V24a25.73,25.73,0,0,0,1,7,46.19,46.19,0,0,0-9.44,2.34c-5.47,2.07-8.48,5-8.48,8.11,0,2.75,2.27,5.28,6.46,7.26l-5.16,2.61.9,1.79,7.89-4-3.07-7.93L41.41,42l1.88,4.85c-3.23-1.58-5-3.46-5-5.32,0-2.23,2.62-4.51,7.19-6.24A43.75,43.75,0,0,1,54.81,33,20.86,20.86,0,0,0,56,35.54l.49.88A14.51,14.51,0,0,0,53.19,46c0,.16,0,.33,0,.49v14.7H12.76v59.93H115.24V100.64h0v-2H74.79v-7A24,24,0,0,0,72,80.16l-.46-.83a14.53,14.53,0,0,0,3.31-9.57c0-.26,0-.52,0-.78V56.78a45.14,45.14,0,0,0,8.48-2.19c5.47-2.08,8.48-5,8.48-8.12,0-2.74-2.27-5.28-6.46-7.26l5.16-2.61-.9-1.78-7.89,4,3.07,7.92L86.59,46l-1.88-4.85c3.23,1.57,5,3.46,5,5.31,0,2.24-2.62,4.51-7.19,6.25a42.4,42.4,0,0,1-7.77,2V43.23A24,24,0,0,0,72,31.73l-.46-.83a14.55,14.55,0,0,0,3.31-9.57c0-.26,0-.52,0-.78V0ZM55.19,94.42a13,13,0,0,1,2.34-7.72l6.65,11.94H55.75A16.08,16.08,0,0,1,55.19,94.42Zm0-7.75v-4.4c.26.59.53,1.16.83,1.7l.49.88A10.74,10.74,0,0,0,55.18,86.67Zm58.06,14v18.47H14.76V63.18H53.18v37.46h60.06Zm-40.45-9v7H66.47L58,83.37h0L57.76,83a21.93,21.93,0,0,1-2.57-10.52V54.18h0L70,80.81h0l.19.33A22,22,0,0,1,72.79,91.66ZM70.46,77.47,57,53.2A15,15,0,0,1,55.19,46a12.92,12.92,0,0,1,2.35-7.72l9.62,17.28c-1,.05-2.09.08-3.16.08v2c1.43,0,2.85-.06,4.24-.14l2.82,5.06a15.11,15.11,0,0,1,1.75,7.21A12.89,12.89,0,0,1,70.46,77.47Zm2.33-15.92-2.36-4.23c.8-.07,1.58-.15,2.36-.25Zm0-18.32V55.05c-1.12.15-2.25.28-3.42.37L58,34.94h0l-.21-.37A22,22,0,0,1,55.19,24V5.75h0L70,32.37h0l.19.33A22.08,22.08,0,0,1,72.79,43.23Z"/></g></svg>